<svg width="110" height="110" viewBox="0 0 110 110" fill="none" xmlns="http://www.w3.org/2000/svg">
    <circle cx="55" cy="55" r="25" fill="white" />
    <rect x="52" width="6" height="25" rx="3" fill="white" />
    <rect x="52" y="85" width="6" height="25" rx="3" fill="white" />
    <rect x="85" y="58" width="6" height="25" rx="3" transform="rotate(-90 85 58)" fill="white" />
    <rect y="58" width="6" height="25" rx="3" transform="rotate(-90 0 58)" fill="white" />
    <rect x="12" y="16.2426" width="6" height="25" rx="3" transform="rotate(-45 12 16.2426)"
        fill="white" />
    <rect x="76" y="80.2426" width="6" height="25" rx="3" transform="rotate(-45 76 80.2426)"
        fill="white" />
    <rect x="93.6777" y="12" width="6" height="25" rx="3" transform="rotate(45 93.6777 12)"
        fill="white" />
    <rect x="29.6777" y="76" width="6" height="25" rx="3" transform="rotate(45 29.6777 76)"
        fill="white" />
</svg>