<svg width="111" height="110" viewBox="0 0 111 110" fill="none" xmlns="http://www.w3.org/2000/svg">
<circle cx="56" cy="55" r="55" fill="#1E1C3E"/>
<path d="M56 110C70.5869 110 84.5764 104.205 94.8909 93.8909C105.205 83.5764 111 69.5869 111 55C111 40.4131 105.205 26.4236 94.8909 16.1091C84.5764 5.79463 70.5869 -1.73947e-07 56 0L56 55L56 110Z" fill="#CCCCCC"/>
<path d="M38 31.6031C38 37.6783 33.0751 42.6031 27 42.6031C20.9249 42.6031 16 37.6783 16 31.6031C16 25.528 20.9249 20.6031 27 20.6031C33.0751 20.6031 38 25.528 38 31.6031Z" fill="black" fill-opacity="0.12"/>
<path d="M63 27.5C63 32.7467 58.7467 37 53.5 37C48.2533 37 44 32.7467 44 27.5C44 22.2533 48.2533 18 53.5 18C58.7467 18 63 22.2533 63 27.5Z" fill="black" fill-opacity="0.12"/>
<path d="M84 17C84 20.3137 81.3137 23 78 23C74.6863 23 72 20.3137 72 17C72 13.6863 74.6863 11 78 11C81.3137 11 84 13.6863 84 17Z" fill="black" fill-opacity="0.12"/>
<path d="M90 49C90 52.3137 87.3137 55 84 55C80.6863 55 78 52.3137 78 49C78 45.6863 80.6863 43 84 43C87.3137 43 90 45.6863 90 49Z" fill="black" fill-opacity="0.12"/>
<path d="M74 34.5C74 35.8807 72.8807 37 71.5 37C70.1193 37 69 35.8807 69 34.5C69 33.1193 70.1193 32 71.5 32C72.8807 32 74 33.1193 74 34.5Z" fill="black" fill-opacity="0.12"/>
<path d="M95 77.5C95 78.8807 93.8807 80 92.5 80C91.1193 80 90 78.8807 90 77.5C90 76.1193 91.1193 75 92.5 75C93.8807 75 95 76.1193 95 77.5Z" fill="black" fill-opacity="0.12"/>
<path d="M43 55C43 56.1046 42.1046 57 41 57C39.8954 57 39 56.1046 39 55C39 53.8954 39.8954 53 41 53C42.1046 53 43 53.8954 43 55Z" fill="black" fill-opacity="0.12"/>
<path d="M58 0C58 1.10457 57.1046 2 56 2C54.8954 2 54 1.14457 54 0.04C54 0.04 54.8954 2.16365e-05 56 2.16365e-05C57.1046 2.16365e-05 58 0 58 0Z" fill="black" fill-opacity="0.12"/>
<path d="M67 98C67 100.209 65.2091 102 63 102C60.7909 102 59 100.209 59 98C59 95.7909 60.7909 94 63 94C65.2091 94 67 95.7909 67 98Z" fill="black" fill-opacity="0.12"/>
<path d="M81 78C81 81.3137 78.3137 84 75 84C71.6863 84 69 81.3137 69 78C69 74.6863 71.6863 72 75 72C78.3137 72 81 74.6863 81 78Z" fill="black" fill-opacity="0.12"/>
<path d="M45 11.5C45 14.5376 42.5376 17 39.5 17C36.4624 17 34 14.5376 34 11.5C34 8.46243 36.4624 6 39.5 6C42.5376 6 45 8.46243 45 11.5Z" fill="black" fill-opacity="0.12"/>
<path d="M67 51C67 55.4183 63.4183 59 59 59C54.5817 59 51 55.4183 51 51C51 46.5817 54.5817 43 59 43C63.4183 43 67 46.5817 67 51Z" fill="black" fill-opacity="0.12"/>
<path d="M31 82.5C31 84.9853 28.9853 87 26.5 87C24.0147 87 22 84.9853 22 82.5C22 80.0147 24.0147 78 26.5 78C28.9853 78 31 80.0147 31 82.5Z" fill="black" fill-opacity="0.12"/>
<path d="M32.8826 58.5271C32.8826 68.7443 24.5999 77.0271 14.3826 77.0271C5.75698 77.0271 5.14191 78.5227 2.24247 66.5922C1.72787 64.3984 1.41027 61.7986 1.11326 58.5078C-0.0257962 46.0003 4.0908 40.016 14.3826 40.0271C24.5999 40.0271 32.8826 48.3098 32.8826 58.5271Z" fill="black" fill-opacity="0.12"/>
<path d="M58 74.5C58 81.4036 52.4035 87 45.5 87C38.5964 87 33 81.4036 33 74.5C33 67.5964 38.5964 62 45.5 62C52.4035 62 58 67.5964 58 74.5Z" fill="black" fill-opacity="0.12"/>
</svg>
