<svg width="111" height="110" viewBox="0 0 111 110" fill="none" xmlns="http://www.w3.org/2000/svg">
<circle cx="55.0707" cy="55" r="55" fill="#CCCCCC"/>
<path d="M37.0707 31.6031C37.0707 37.6783 32.1458 42.6031 26.0707 42.6031C19.9955 42.6031 15.0707 37.6783 15.0707 31.6031C15.0707 25.528 19.9955 20.6031 26.0707 20.6031C32.1458 20.6031 37.0707 25.528 37.0707 31.6031Z" fill="black" fill-opacity="0.12"/>
<path d="M62.0707 27.5C62.0707 32.7467 57.8174 37 52.5707 37C47.324 37 43.0707 32.7467 43.0707 27.5C43.0707 22.2533 47.324 18 52.5707 18C57.8174 18 62.0707 22.2533 62.0707 27.5Z" fill="black" fill-opacity="0.12"/>
<path d="M83.0707 17C83.0707 20.3137 80.3844 23 77.0707 23C73.757 23 71.0707 20.3137 71.0707 17C71.0707 13.6863 73.757 11 77.0707 11C80.3844 11 83.0707 13.6863 83.0707 17Z" fill="black" fill-opacity="0.12"/>
<path d="M89.0707 49C89.0707 52.3137 86.3844 55 83.0707 55C79.757 55 77.0707 52.3137 77.0707 49C77.0707 45.6863 79.757 43 83.0707 43C86.3844 43 89.0707 45.6863 89.0707 49Z" fill="black" fill-opacity="0.12"/>
<path d="M73.0707 34.5C73.0707 35.8807 71.9514 37 70.5707 37C69.19 37 68.0707 35.8807 68.0707 34.5C68.0707 33.1193 69.19 32 70.5707 32C71.9514 32 73.0707 33.1193 73.0707 34.5Z" fill="black" fill-opacity="0.12"/>
<path d="M94.0707 77.5C94.0707 78.8807 92.9514 80 91.5707 80C90.19 80 89.0707 78.8807 89.0707 77.5C89.0707 76.1193 90.19 75 91.5707 75C92.9514 75 94.0707 76.1193 94.0707 77.5Z" fill="black" fill-opacity="0.12"/>
<path d="M42.0707 55C42.0707 56.1046 41.1753 57 40.0707 57C38.9661 57 38.0707 56.1046 38.0707 55C38.0707 53.8954 38.9661 53 40.0707 53C41.1753 53 42.0707 53.8954 42.0707 55Z" fill="black" fill-opacity="0.12"/>
<path d="M57.0707 0C57.0707 1.10457 56.1753 2 55.0707 2C53.9661 2 53.0707 1.14457 53.0707 0.04C53.0707 0.04 53.9661 2.16365e-05 55.0707 2.16365e-05C56.1753 2.16365e-05 57.0707 0 57.0707 0Z" fill="black" fill-opacity="0.12"/>
<path d="M66.0707 98C66.0707 100.209 64.2798 102 62.0707 102C59.8616 102 58.0707 100.209 58.0707 98C58.0707 95.7909 59.8616 94 62.0707 94C64.2798 94 66.0707 95.7909 66.0707 98Z" fill="black" fill-opacity="0.12"/>
<path d="M80.0707 78C80.0707 81.3137 77.3844 84 74.0707 84C70.757 84 68.0707 81.3137 68.0707 78C68.0707 74.6863 70.757 72 74.0707 72C77.3844 72 80.0707 74.6863 80.0707 78Z" fill="black" fill-opacity="0.12"/>
<path d="M44.0707 11.5C44.0707 14.5376 41.6083 17 38.5707 17C35.5331 17 33.0707 14.5376 33.0707 11.5C33.0707 8.46243 35.5331 6 38.5707 6C41.6083 6 44.0707 8.46243 44.0707 11.5Z" fill="black" fill-opacity="0.12"/>
<path d="M66.0707 51C66.0707 55.4183 62.489 59 58.0707 59C53.6524 59 50.0707 55.4183 50.0707 51C50.0707 46.5817 53.6524 43 58.0707 43C62.489 43 66.0707 46.5817 66.0707 51Z" fill="black" fill-opacity="0.12"/>
<path d="M30.0707 82.5C30.0707 84.9853 28.056 87 25.5707 87C23.0854 87 21.0707 84.9853 21.0707 82.5C21.0707 80.0147 23.0854 78 25.5707 78C28.056 78 30.0707 80.0147 30.0707 82.5Z" fill="black" fill-opacity="0.12"/>
<path d="M31.9533 58.5271C31.9533 68.7443 23.6706 77.0271 13.4533 77.0271C4.82769 77.0271 4.21262 78.5227 1.31318 66.5922C0.798578 64.3984 0.480977 61.7986 0.183968 58.5078C-0.955087 46.0003 3.16151 40.016 13.4533 40.0271C23.6706 40.0271 31.9533 48.3098 31.9533 58.5271Z" fill="black" fill-opacity="0.12"/>
<path d="M57.0707 74.5C57.0707 81.4036 51.4742 87 44.5707 87C37.6671 87 32.0707 81.4036 32.0707 74.5C32.0707 67.5964 37.6671 62 44.5707 62C51.4742 62 57.0707 67.5964 57.0707 74.5Z" fill="black" fill-opacity="0.12"/>
</svg>
