
<svg width="112" height="112" viewBox="0 0 112 112" fill="none" xmlns="http://www.w3.org/2000/svg">
    <circle cx="56" cy="56" r="55" fill="#CCCCCC"/>
    <path fill-rule="evenodd" clip-rule="evenodd" d="M56 112C86.3757 112 112 86.3757 112 56C112 25.6243 86.3757 0 56 0C52.4192 0 48.9183 0.356094 45.5283 1.03409C68.5687 2.06351 87 26.2786 87 56C87 85.7213 68.5687 109.936 45.5283 110.966C48.9183 111.644 52.4192 112 56 112Z" fill="#1E1C3E"/>
    <path d="M37.9647 32.6031C37.9647 38.6783 33.0398 43.6031 26.9647 43.6031C20.8895 43.6031 15.9646 38.6783 15.9646 32.6031C15.9646 26.528 20.8895 21.6031 26.9647 21.6031C33.0398 21.6031 37.9647 26.528 37.9647 32.6031Z" fill="black" fill-opacity="0.12"/>
    <path d="M62.9647 28.5C62.9647 33.7467 58.7114 38 53.4647 38C48.218 38 43.9647 33.7467 43.9647 28.5C43.9647 23.2533 48.218 19 53.4647 19C58.7114 19 62.9647 23.2533 62.9647 28.5Z" fill="black" fill-opacity="0.12"/>
    <path d="M83.9646 18C83.9646 21.3137 81.2783 24 77.9646 24C74.6509 24 71.9646 21.3137 71.9646 18C71.9646 14.6863 74.6509 12 77.9646 12C81.2783 12 83.9646 14.6863 83.9646 18Z" fill="black" fill-opacity="0.12"/>
    <path d="M89.9646 50C89.9646 53.3137 87.2783 56 83.9646 56C80.6509 56 77.9646 53.3137 77.9646 50C77.9646 46.6863 80.6509 44 83.9646 44C87.2783 44 89.9646 46.6863 89.9646 50Z" fill="black" fill-opacity="0.12"/>
    <path d="M73.9646 35.5C73.9646 36.8807 72.8453 38 71.4646 38C70.0839 38 68.9646 36.8807 68.9646 35.5C68.9646 34.1193 70.0839 33 71.4646 33C72.8453 33 73.9646 34.1193 73.9646 35.5Z" fill="black" fill-opacity="0.12"/>
    <path d="M94.9646 78.5C94.9646 79.8807 93.8453 81 92.4646 81C91.0839 81 89.9646 79.8807 89.9646 78.5C89.9646 77.1193 91.0839 76 92.4646 76C93.8453 76 94.9646 77.1193 94.9646 78.5Z" fill="black" fill-opacity="0.12"/>
    <path d="M42.9647 56C42.9647 57.1046 42.0692 58 40.9647 58C39.8601 58 38.9647 57.1046 38.9647 56C38.9647 54.8954 39.8601 54 40.9647 54C42.0692 54 42.9647 54.8954 42.9647 56Z" fill="black" fill-opacity="0.12"/>
    <path d="M57.9647 1C57.9647 2.10457 57.0692 3 55.9647 3C54.8601 3 53.9647 2.14457 53.9647 1.04C53.9647 1.04 54.8601 1.00002 55.9647 1.00002C57.0692 1.00002 57.9647 1 57.9647 1Z" fill="black" fill-opacity="0.12"/>
    <path d="M66.9647 99C66.9647 101.209 65.1738 103 62.9647 103C60.7555 103 58.9647 101.209 58.9647 99C58.9647 96.7909 60.7555 95 62.9647 95C65.1738 95 66.9647 96.7909 66.9647 99Z" fill="black" fill-opacity="0.12"/>
    <path d="M80.9646 79C80.9646 82.3137 78.2783 85 74.9646 85C71.6509 85 68.9646 82.3137 68.9646 79C68.9646 75.6863 71.6509 73 74.9646 73C78.2783 73 80.9646 75.6863 80.9646 79Z" fill="black" fill-opacity="0.12"/>
    <path d="M44.9647 12.5C44.9647 15.5376 42.5022 18 39.4647 18C36.4271 18 33.9647 15.5376 33.9647 12.5C33.9647 9.46243 36.4271 7 39.4647 7C42.5022 7 44.9647 9.46243 44.9647 12.5Z" fill="black" fill-opacity="0.12"/>
    <path d="M66.9647 52C66.9647 56.4183 63.3829 60 58.9647 60C54.5464 60 50.9647 56.4183 50.9647 52C50.9647 47.5817 54.5464 44 58.9647 44C63.3829 44 66.9647 47.5817 66.9647 52Z" fill="black" fill-opacity="0.12"/>
    <path d="M30.9646 83.5C30.9646 85.9853 28.9499 88 26.4646 88C23.9794 88 21.9646 85.9853 21.9646 83.5C21.9646 81.0147 23.9794 79 26.4646 79C28.9499 79 30.9646 81.0147 30.9646 83.5Z" fill="black" fill-opacity="0.12"/>
    <path d="M32.8473 59.5271C32.8473 69.7443 24.5645 78.0271 14.3473 78.0271C5.72164 78.0271 5.10658 79.5227 2.20713 67.5922C1.69253 65.3984 1.37493 62.7986 1.07792 59.5078C-0.0611355 47.0003 4.05546 41.016 14.3473 41.0271C24.5645 41.0271 32.8473 49.3098 32.8473 59.5271Z" fill="black" fill-opacity="0.12"/>
    <path d="M57.9646 75.5C57.9646 82.4036 52.3682 88 45.4646 88C38.5611 88 32.9646 82.4036 32.9646 75.5C32.9646 68.5964 38.5611 63 45.4646 63C52.3682 63 57.9646 68.5964 57.9646 75.5Z" fill="black" fill-opacity="0.12"/>
    </svg>
    