
<svg width="111" height="112" viewBox="0 0 111 112" fill="none" xmlns="http://www.w3.org/2000/svg">
    <circle cx="56" cy="56" r="55" transform="rotate(180 56 56)" fill="#CCCCCC"/>
    <path fill-rule="evenodd" clip-rule="evenodd" d="M56 0C25.6243 0 8.37613e-06 25.6243 8.37613e-06 56C8.37613e-06 86.3757 25.6243 112 56 112C59.5808 112 63.0817 111.644 66.4717 110.966C43.4313 109.936 25 85.7213 25 56C25 26.2787 43.4313 2.06352 66.4717 1.03409C63.0817 0.356094 59.5808 0 56 0Z" fill="#1E1C3E"/>
    <path d="M38.0707 32.6031C38.0707 38.6783 33.1458 43.6031 27.0707 43.6031C20.9956 43.6031 16.0707 38.6783 16.0707 32.6031C16.0707 26.528 20.9956 21.6031 27.0707 21.6031C33.1458 21.6031 38.0707 26.528 38.0707 32.6031Z" fill="black" fill-opacity="0.12"/>
    <path d="M63.0707 28.5C63.0707 33.7467 58.8174 38 53.5707 38C48.324 38 44.0707 33.7467 44.0707 28.5C44.0707 23.2533 48.324 19 53.5707 19C58.8174 19 63.0707 23.2533 63.0707 28.5Z" fill="black" fill-opacity="0.12"/>
    <path d="M84.0707 18C84.0707 21.3137 81.3844 24 78.0707 24C74.757 24 72.0707 21.3137 72.0707 18C72.0707 14.6863 74.757 12 78.0707 12C81.3844 12 84.0707 14.6863 84.0707 18Z" fill="black" fill-opacity="0.12"/>
    <path d="M90.0707 50C90.0707 53.3137 87.3844 56 84.0707 56C80.757 56 78.0707 53.3137 78.0707 50C78.0707 46.6863 80.757 44 84.0707 44C87.3844 44 90.0707 46.6863 90.0707 50Z" fill="black" fill-opacity="0.12"/>
    <path d="M74.0707 35.5C74.0707 36.8807 72.9514 38 71.5707 38C70.19 38 69.0707 36.8807 69.0707 35.5C69.0707 34.1193 70.19 33 71.5707 33C72.9514 33 74.0707 34.1193 74.0707 35.5Z" fill="black" fill-opacity="0.12"/>
    <path d="M95.0707 78.5C95.0707 79.8807 93.9514 81 92.5707 81C91.19 81 90.0707 79.8807 90.0707 78.5C90.0707 77.1193 91.19 76 92.5707 76C93.9514 76 95.0707 77.1193 95.0707 78.5Z" fill="black" fill-opacity="0.12"/>
    <path d="M43.0707 56C43.0707 57.1046 42.1753 58 41.0707 58C39.9661 58 39.0707 57.1046 39.0707 56C39.0707 54.8954 39.9661 54 41.0707 54C42.1753 54 43.0707 54.8954 43.0707 56Z" fill="black" fill-opacity="0.12"/>
    <path d="M58.0707 1C58.0707 2.10457 57.1753 3 56.0707 3C54.9661 3 54.0707 2.14457 54.0707 1.04C54.0707 1.04 54.9661 1.00002 56.0707 1.00002C57.1753 1.00002 58.0707 1 58.0707 1Z" fill="black" fill-opacity="0.12"/>
    <path d="M67.0707 99C67.0707 101.209 65.2798 103 63.0707 103C60.8616 103 59.0707 101.209 59.0707 99C59.0707 96.7909 60.8616 95 63.0707 95C65.2798 95 67.0707 96.7909 67.0707 99Z" fill="black" fill-opacity="0.12"/>
    <path d="M81.0707 79C81.0707 82.3137 78.3844 85 75.0707 85C71.757 85 69.0707 82.3137 69.0707 79C69.0707 75.6863 71.757 73 75.0707 73C78.3844 73 81.0707 75.6863 81.0707 79Z" fill="black" fill-opacity="0.12"/>
    <path d="M45.0707 12.5C45.0707 15.5376 42.6083 18 39.5707 18C36.5331 18 34.0707 15.5376 34.0707 12.5C34.0707 9.46243 36.5331 7 39.5707 7C42.6083 7 45.0707 9.46243 45.0707 12.5Z" fill="black" fill-opacity="0.12"/>
    <path d="M67.0707 52C67.0707 56.4183 63.489 60 59.0707 60C54.6524 60 51.0707 56.4183 51.0707 52C51.0707 47.5817 54.6524 44 59.0707 44C63.489 44 67.0707 47.5817 67.0707 52Z" fill="black" fill-opacity="0.12"/>
    <path d="M31.0707 83.5C31.0707 85.9853 29.056 88 26.5707 88C24.0854 88 22.0707 85.9853 22.0707 83.5C22.0707 81.0147 24.0854 79 26.5707 79C29.056 79 31.0707 81.0147 31.0707 83.5Z" fill="black" fill-opacity="0.12"/>
    <path d="M32.9533 59.5271C32.9533 69.7443 24.6706 78.0271 14.4533 78.0271C5.82769 78.0271 5.21262 79.5227 2.31318 67.5922C1.79858 65.3984 1.48098 62.7986 1.18397 59.5078C0.0449131 47.0003 4.16151 41.016 14.4533 41.0271C24.6706 41.0271 32.9533 49.3098 32.9533 59.5271Z" fill="black" fill-opacity="0.12"/>
    <path d="M58.0707 75.5C58.0707 82.4036 52.4743 88 45.5707 88C38.6671 88 33.0707 82.4036 33.0707 75.5C33.0707 68.5964 38.6671 63 45.5707 63C52.4743 63 58.0707 68.5964 58.0707 75.5Z" fill="black" fill-opacity="0.12"/>
    </svg>
    