<svg width="110" height="110" viewBox="0 0 110 110" fill="none" xmlns="http://www.w3.org/2000/svg">
<circle cx="55" cy="55" r="55" fill="#1E1C3E"/>
<path fill-rule="evenodd" clip-rule="evenodd" d="M48.2653 109.592C69.5298 106.271 86 83.0957 86 55C86 26.9043 69.5298 3.72895 48.2653 0.408208C50.4725 0.138729 52.7201 0 55 0C85.3757 0 110 24.6243 110 55C110 85.3757 85.3757 110 55 110C52.7201 110 50.4725 109.861 48.2653 109.592Z" fill="#CCCCCC"/>
<path d="M37.0708 31.6031C37.0708 37.6783 32.1459 42.6031 26.0708 42.6031C19.9957 42.6031 15.0708 37.6783 15.0708 31.6031C15.0708 25.528 19.9957 20.6031 26.0708 20.6031C32.1459 20.6031 37.0708 25.528 37.0708 31.6031Z" fill="black" fill-opacity="0.12"/>
<path d="M62.0708 27.5C62.0708 32.7467 57.8175 37 52.5708 37C47.3241 37 43.0708 32.7467 43.0708 27.5C43.0708 22.2533 47.3241 18 52.5708 18C57.8175 18 62.0708 22.2533 62.0708 27.5Z" fill="black" fill-opacity="0.12"/>
<path d="M83.0708 17C83.0708 20.3137 80.3845 23 77.0708 23C73.7571 23 71.0708 20.3137 71.0708 17C71.0708 13.6863 73.7571 11 77.0708 11C80.3845 11 83.0708 13.6863 83.0708 17Z" fill="black" fill-opacity="0.12"/>
<path d="M89.0708 49C89.0708 52.3137 86.3845 55 83.0708 55C79.7571 55 77.0708 52.3137 77.0708 49C77.0708 45.6863 79.7571 43 83.0708 43C86.3845 43 89.0708 45.6863 89.0708 49Z" fill="black" fill-opacity="0.12"/>
<path d="M73.0708 34.5C73.0708 35.8807 71.9515 37 70.5708 37C69.1901 37 68.0708 35.8807 68.0708 34.5C68.0708 33.1193 69.1901 32 70.5708 32C71.9515 32 73.0708 33.1193 73.0708 34.5Z" fill="black" fill-opacity="0.12"/>
<path d="M94.0708 77.5C94.0708 78.8807 92.9515 80 91.5708 80C90.1901 80 89.0708 78.8807 89.0708 77.5C89.0708 76.1193 90.1901 75 91.5708 75C92.9515 75 94.0708 76.1193 94.0708 77.5Z" fill="black" fill-opacity="0.12"/>
<path d="M42.0708 55C42.0708 56.1046 41.1754 57 40.0708 57C38.9662 57 38.0708 56.1046 38.0708 55C38.0708 53.8954 38.9662 53 40.0708 53C41.1754 53 42.0708 53.8954 42.0708 55Z" fill="black" fill-opacity="0.12"/>
<path d="M57.0708 0C57.0708 1.10457 56.1754 2 55.0708 2C53.9662 2 53.0708 1.14457 53.0708 0.04C53.0708 0.04 53.9662 2.16365e-05 55.0708 2.16365e-05C56.1754 2.16365e-05 57.0708 0 57.0708 0Z" fill="black" fill-opacity="0.12"/>
<path d="M66.0708 98C66.0708 100.209 64.2799 102 62.0708 102C59.8617 102 58.0708 100.209 58.0708 98C58.0708 95.7909 59.8617 94 62.0708 94C64.2799 94 66.0708 95.7909 66.0708 98Z" fill="black" fill-opacity="0.12"/>
<path d="M80.0708 78C80.0708 81.3137 77.3845 84 74.0708 84C70.7571 84 68.0708 81.3137 68.0708 78C68.0708 74.6863 70.7571 72 74.0708 72C77.3845 72 80.0708 74.6863 80.0708 78Z" fill="black" fill-opacity="0.12"/>
<path d="M44.0708 11.5C44.0708 14.5376 41.6084 17 38.5708 17C35.5332 17 33.0708 14.5376 33.0708 11.5C33.0708 8.46243 35.5332 6 38.5708 6C41.6084 6 44.0708 8.46243 44.0708 11.5Z" fill="black" fill-opacity="0.12"/>
<path d="M66.0708 51C66.0708 55.4183 62.4891 59 58.0708 59C53.6525 59 50.0708 55.4183 50.0708 51C50.0708 46.5817 53.6525 43 58.0708 43C62.4891 43 66.0708 46.5817 66.0708 51Z" fill="black" fill-opacity="0.12"/>
<path d="M30.0708 82.5C30.0708 84.9853 28.0561 87 25.5708 87C23.0855 87 21.0708 84.9853 21.0708 82.5C21.0708 80.0147 23.0855 78 25.5708 78C28.0561 78 30.0708 80.0147 30.0708 82.5Z" fill="black" fill-opacity="0.12"/>
<path d="M31.9534 58.5271C31.9534 68.7443 23.6707 77.0271 13.4534 77.0271C4.82778 77.0271 4.21272 78.5227 1.31327 66.5922C0.79867 64.3984 0.481069 61.7986 0.184059 58.5078C-0.954995 46.0003 3.1616 40.016 13.4534 40.0271C23.6707 40.0271 31.9534 48.3098 31.9534 58.5271Z" fill="black" fill-opacity="0.12"/>
<path d="M57.0708 74.5C57.0708 81.4036 51.4743 87 44.5708 87C37.6672 87 32.0708 81.4036 32.0708 74.5C32.0708 67.5964 37.6672 62 44.5708 62C51.4743 62 57.0708 67.5964 57.0708 74.5Z" fill="black" fill-opacity="0.12"/>
</svg>
